<?xml version="1.0" encoding="iso-8859-1"?>
<!-- Generator: Adobe Illustrator 19.0.0, SVG Export Plug-In . SVG Version: 6.00 Build 0)  -->
<svg version="1.1" id="Layer_1" xmlns="http://www.w3.org/2000/svg" xmlns:xlink="http://www.w3.org/1999/xlink" x="0px" y="0px"
	 viewBox="0 0 512 512" style="enable-background:new 0 0 512 512;" xml:space="preserve">
<path style="fill:#282828;" d="M487.815,162.167h-28.382c-30.724,0-55.72-24.996-55.72-55.72s24.996-55.72,55.72-55.72h28.382
	v33.391h-28.382c-12.313,0-22.329,10.017-22.329,22.329s10.016,22.329,22.329,22.329h28.382V162.167z"/>
<path style="fill:#444444;" d="M445.226,423.351c-32.69,0-59.284-26.595-59.284-59.284V255.556
	c0-14.277-11.616-25.893-25.893-25.893h-42.588v-33.391h42.588c32.689,0,59.284,26.595,59.284,59.284v108.511
	c0,14.277,11.616,25.893,25.893,25.893c14.277,0,25.893-11.616,25.893-25.893V16.696h33.391v347.371
	C504.51,396.755,477.915,423.351,445.226,423.351z"/>
<path style="fill:#BF0F36;" d="M334.157,512H7.49V0h326.666v512H334.157z"/>
<path style="fill:#9D092B;" d="M334.157,512H170.823V0h163.332v512H334.157z"/>
<path style="fill:#C2E2FD;" d="M267.374,229.663H74.272V66.783h193.102V229.663z"/>
<path style="fill:#67B5F8;" d="M267.374,229.663h-96.551V66.783h96.551V229.663z"/>
<rect x="7.49" y="456.348" style="fill:#444444;" width="326.667" height="55.652"/>
<rect x="170.819" y="456.348" style="fill:#282828;" width="163.339" height="55.652"/>
<g>
</g>
<g>
</g>
<g>
</g>
<g>
</g>
<g>
</g>
<g>
</g>
<g>
</g>
<g>
</g>
<g>
</g>
<g>
</g>
<g>
</g>
<g>
</g>
<g>
</g>
<g>
</g>
<g>
</g>
</svg>
