<?xml version="1.0" encoding="iso-8859-1"?>
<!-- Generator: Adobe Illustrator 19.0.0, SVG Export Plug-In . SVG Version: 6.00 Build 0)  -->
<svg version="1.1" id="Capa_1" xmlns="http://www.w3.org/2000/svg" xmlns:xlink="http://www.w3.org/1999/xlink" x="0px" y="0px"
	 viewBox="0 0 370 370" style="enable-background:new 0 0 370 370;" xml:space="preserve">
<g id="XMLID_6_">
	<path id="XMLID_2245_" style="fill:#64C37D;" d="M80,301.458C65.544,305.762,55,319.146,55,335c0,1.698,0.127,3.366,0.361,5H50
		c-8.284,0-15,6.716-15,15s6.716,15,15,15h30V301.458z"/>
	<path id="XMLID_2246_" style="fill:#64C37D;" d="M320,340h-5.361c0.234-1.634,0.361-3.302,0.361-5
		c0-15.854-10.544-29.238-25-33.542V370h30c8.284,0,15-6.716,15-15S328.284,340,320,340z"/>
	<path id="XMLID_2247_" style="fill:#FFD6A0;" d="M125,320h-20l35-40h45V40h-33.389H80v60h30v60H80v30h30v60H80v120h45V320z
		 M140,100h30v60h-30V100z M140,190h30v60h-30V190z"/>
	<path id="XMLID_2251_" style="fill:#FFC170;" d="M290,250h-30v-60h30v-30h-30v-60h30V40H185v240h45l35,40h-20v50h45V250z M230,250
		h-30v-60h30V250z M230,160h-30v-60h30V160z"/>
	<rect id="XMLID_2255_" x="155" y="320" style="fill:#818085;" width="30" height="50"/>
	<rect id="XMLID_2256_" x="185" y="320" style="fill:#565659;" width="30" height="50"/>
	<rect id="XMLID_2257_" x="125" y="320" style="fill:#FFFFFF;" width="30" height="50"/>
	<rect id="XMLID_2258_" x="215" y="320" style="fill:#FFFFFF;" width="30" height="50"/>
	<rect id="XMLID_2259_" x="80" y="100" style="fill:#FFFFFF;" width="30" height="60"/>
	<rect id="XMLID_2260_" x="140" y="100" style="fill:#FFFFFF;" width="30" height="60"/>
	<rect id="XMLID_2261_" x="200" y="100" style="fill:#FFFFFF;" width="30" height="60"/>
	<rect id="XMLID_2262_" x="260" y="100" style="fill:#FFFFFF;" width="30" height="60"/>
	<rect id="XMLID_2263_" x="80" y="190" style="fill:#FFFFFF;" width="30" height="60"/>
	<rect id="XMLID_2264_" x="140" y="190" style="fill:#FFFFFF;" width="30" height="60"/>
	<rect id="XMLID_2265_" x="200" y="190" style="fill:#FFFFFF;" width="30" height="60"/>
	<rect id="XMLID_2266_" x="260" y="190" style="fill:#FFFFFF;" width="30" height="60"/>
	<polygon id="XMLID_2267_" style="fill:#565659;" points="100.222,24.222 113.444,24.222 113.444,39.667 124.278,39.667 
		124.278,0.222 113.444,0.222 113.444,14.777 100.222,14.777 100.222,0.222 89.388,0.222 89.388,39.667 100.222,39.667 	"/>
	<path id="XMLID_2268_" style="fill:#565659;" d="M166.056,33.917c1.778-1.832,3.167-3.945,4.167-6.334c1-2.39,1.5-4.879,1.5-7.473
		c0-2.518-0.473-4.98-1.417-7.389c-0.945-2.407-2.288-4.556-4.028-6.444c-1.741-1.889-3.833-3.407-6.278-4.555
		C157.555,0.574,154.833,0,151.833,0c-2.926,0-5.62,0.547-8.083,1.639c-2.464,1.093-4.593,2.556-6.389,4.39
		c-1.797,1.833-3.194,3.953-4.194,6.36c-1.001,2.408-1.501,4.908-1.501,7.5c0,2.556,0.481,5.037,1.444,7.444
		c0.963,2.408,2.314,4.548,4.056,6.417c1.741,1.87,3.833,3.38,6.278,4.527c2.444,1.148,5.167,1.723,8.167,1.723
		c2.925,0,5.62-0.556,8.083-1.667C162.157,37.222,164.278,35.75,166.056,33.917z M155.777,29.473
		c-1.148,0.612-2.5,0.916-4.055,0.916c-1.556,0-2.899-0.296-4.028-0.889c-1.13-0.592-2.064-1.37-2.806-2.333
		c-0.741-0.963-1.297-2.064-1.666-3.307c-0.371-1.24-0.556-2.527-0.556-3.86c0-1.297,0.175-2.565,0.528-3.807
		c0.352-1.239,0.898-2.351,1.639-3.333c0.74-0.981,1.675-1.769,2.806-2.361c1.129-0.592,2.472-0.889,4.027-0.889
		c1.519,0,2.843,0.288,3.973,0.861c1.129,0.575,2.073,1.334,2.833,2.278c0.759,0.943,1.324,2.036,1.695,3.277
		c0.37,1.242,0.556,2.528,0.556,3.861c0,1.298-0.176,2.574-0.528,3.834c-0.352,1.259-0.889,2.38-1.611,3.36
		C157.861,28.065,156.925,28.861,155.777,29.473z"/>
	<polygon id="XMLID_2271_" style="fill:#565659;" points="187.057,39.667 197.89,39.667 197.89,9.667 209.224,9.667 209.224,0.222 
		175.668,0.222 175.668,9.667 187.057,9.667 	"/>
	<polygon id="XMLID_2272_" style="fill:#565659;" points="244.057,30.222 226.779,30.222 226.779,24 241.112,24 241.112,15.222 
		226.779,15.222 226.779,9.667 243.557,9.667 243.557,0.222 215.945,0.222 215.945,39.667 244.057,39.667 	"/>
	<polygon id="XMLID_2273_" style="fill:#565659;" points="280.612,30.222 262.723,30.222 262.723,0.222 251.889,0.222 
		251.889,39.667 280.612,39.667 	"/>
	<polygon id="XMLID_2274_" style="fill:#FF5023;" points="105,320 125,320 155,320 185,320 185,280 140,280 	"/>
	<polygon id="XMLID_2275_" style="fill:#BF3C1A;" points="185,320 215,320 245,320 265,320 230,280 185,280 	"/>
</g>
<g>
</g>
<g>
</g>
<g>
</g>
<g>
</g>
<g>
</g>
<g>
</g>
<g>
</g>
<g>
</g>
<g>
</g>
<g>
</g>
<g>
</g>
<g>
</g>
<g>
</g>
<g>
</g>
<g>
</g>
</svg>
