<?xml version="1.0" encoding="iso-8859-1"?>
<!-- Generator: Adobe Illustrator 19.1.0, SVG Export Plug-In . SVG Version: 6.00 Build 0)  -->
<svg version="1.1" id="Capa_1" xmlns="http://www.w3.org/2000/svg" xmlns:xlink="http://www.w3.org/1999/xlink" x="0px" y="0px"
	 viewBox="0 0 297 297" style="enable-background:new 0 0 297 297;" xml:space="preserve">
<g>
	<path style="fill:#FFB929;" d="M16.5,281h264V16h-264V281z M44.265,49.295c8.808-8.807,20.652-13.656,33.352-13.656
		c13.462,0,26.229,5.352,35.946,15.069c12.778,12.778,17.452,30.537,13.887,46.527l21.457,21.458l4.439-4.44
		c-3.525-15.966,1.153-33.678,13.905-46.431c0.135-0.135,25.126-25.12,29.59-29.579c3.124-3.12,8.186-3.119,11.311,0.003
		l56.562,56.564c3.124,3.125,3.124,8.189,0,11.314l-29.58,29.58c-9.718,9.718-22.485,15.069-35.947,15.069
		c-3.585,0-7.098-0.4-10.497-1.153l-4.428,4.428l63.62,63.62c9.648,9.65,9.649,25.351,0.002,35.001l-0.354,0.354
		c-4.676,4.675-10.892,7.249-17.503,7.249c-6.611,0-12.826-2.574-17.501-7.25l-63.62-63.619l-63.62,63.483
		c-4.675,4.675-10.89,7.112-17.5,7.112c0,0-0.001,0-0.002,0c-6.61,0-12.825-2.438-17.5-7.111l-0.354-0.285
		c-9.648-9.651-9.648-25.318,0-34.969l63.62-63.604L92.03,132.52c-3.37,0.739-6.852,1.137-10.403,1.137
		c-13.462,0-26.229-5.35-35.947-15.067C26.185,99.095,25.551,68.011,44.265,49.295z"/>
	<path d="M296.5,8c0-4.418-3.582-8-8-8H8.5c-4.418,0-8,3.582-8,8v281c0,4.418,3.582,8,8,8h280c4.418,0,8-3.582,8-8V8z M280.5,281
		h-264V16h264V281z"/>
	<path style="fill:#FFFFFF;" d="M160.221,178.09l63.62,63.62c1.652,1.653,3.85,2.563,6.186,2.563c2.338,0,4.536-0.91,6.189-2.563
		l0.353-0.354c3.41-3.411,3.41-8.962-0.002-12.373l-63.62-63.62L160.221,178.09z"/>
	<path style="fill:#FFFFFF;" d="M114.978,120.005c-2.177,2.177-4.54,4.109-7.055,5.789l16.942,16.941l12.727-12.728l-16.93-16.931
		C119.02,115.523,117.133,117.85,114.978,120.005z"/>
	<path style="fill:#FFFFFF;" d="M56.993,107.278c6.696,6.695,15.445,10.383,24.634,10.383c8.426,0,16.252-3.186,22.037-8.97
		c12.476-12.477,11.841-33.413-1.415-46.67c-6.696-6.695-15.444-10.383-24.633-10.383c-8.426,0-16.253,3.186-22.038,8.97
		C43.104,73.085,43.737,94.021,56.993,107.278z"/>
	<path d="M81.627,133.661c3.552,0,7.033-0.393,10.403-1.132l21.521,21.52l-63.62,63.62c-9.648,9.65-9.648,25.352,0,35.003
		l0.354,0.217c4.675,4.674,10.89,7.111,17.5,7.111c0.001,0,0.001,0,0.001,0c6.611,0,12.826-2.438,17.501-7.112l63.62-63.552
		l63.62,63.653c4.675,4.676,10.89,7.267,17.501,7.267c6.611,0,12.827-2.565,17.503-7.24l0.354-0.35
		c9.647-9.65,9.646-25.35-0.002-34.999l-63.62-63.619l4.428-4.428c3.399,0.753,6.912,1.154,10.497,1.154
		c13.462,0,26.23-5.352,35.947-15.069l29.58-29.58c3.124-3.125,3.124-8.189,0-11.314l-56.562-56.564
		c-3.124-3.122-8.187-3.123-11.311-0.003c-4.464,4.459-29.455,29.444-29.59,29.579c-12.752,12.753-17.431,30.465-13.905,46.431
		l-4.439,4.44l-21.457-21.458c3.565-15.99-1.108-33.749-13.887-46.527c-9.718-9.718-22.484-15.069-35.946-15.069
		c-12.699,0-24.544,4.85-33.352,13.656c-18.714,18.716-18.079,49.802,1.415,69.297C55.398,128.31,68.165,133.661,81.627,133.661z
		 M102.249,62.021c13.256,13.257,13.891,34.193,1.415,46.67c-5.785,5.784-13.611,8.97-22.037,8.97
		c-9.188,0-17.938-3.688-24.634-10.383c-13.256-13.257-13.89-34.193-1.415-46.67c5.785-5.784,13.612-8.97,22.038-8.97
		C86.805,51.639,95.553,55.326,102.249,62.021z M178.565,79.137c0.104-0.104,15.086-15.084,23.927-23.921l7.773,7.773l-18.03,18.031
		c-3.124,3.125-3.124,8.189,0,11.314c1.562,1.562,3.609,2.343,5.657,2.343c2.048,0,4.095-0.781,5.657-2.343l18.03-18.031
		l7.777,7.777l-18.03,18.031c-3.124,3.125-3.124,8.19,0,11.315c1.562,1.561,3.609,2.343,5.657,2.343
		c2.048,0,4.095-0.781,5.657-2.343l18.03-18.03l7.071,7.071l-23.924,23.923c-6.696,6.696-15.444,10.385-24.633,10.384
		c-8.426,0-16.252-3.186-22.035-8.97C164.674,113.328,165.309,92.393,178.565,79.137z M165.837,137.118
		c2.156,2.157,4.497,4.072,6.986,5.741l-98.851,98.852c-1.652,1.652-3.85,2.562-6.186,2.562h-0.001c-2.337,0-4.534-0.91-6.187-2.562
		l-0.354-0.353c-3.412-3.412-3.412-8.965,0-12.376l98.859-98.861C161.758,132.594,163.661,134.942,165.837,137.118z
		 M236.569,241.356l-0.353,0.354c-1.653,1.653-3.852,2.563-6.189,2.563c-2.337,0-4.534-0.91-6.186-2.563l-63.62-63.62l12.727-12.727
		l63.62,63.62C239.98,232.395,239.98,237.945,236.569,241.356z M124.864,142.734l-16.942-16.941c2.515-1.68,4.878-3.612,7.055-5.789
		c2.155-2.155,4.042-4.481,5.685-6.929l16.93,16.931L124.864,142.734z"/>
	<path style="fill:#FFFFFF;" d="M61.245,228.982c-3.412,3.411-3.412,8.964,0,12.376l0.354,0.353c1.652,1.652,3.85,2.562,6.187,2.562
		h0.001c2.336,0,4.533-0.91,6.186-2.562l98.851-98.852c-2.489-1.669-4.83-3.584-6.986-5.741c-2.176-2.176-4.079-4.524-5.732-6.997
		L61.245,228.982z"/>
	<path style="fill:#FFFFFF;" d="M177.151,125.805c5.783,5.784,13.609,8.97,22.035,8.97c9.189,0.001,17.937-3.688,24.633-10.384
		l23.924-23.923l-7.071-7.071l-18.03,18.03c-1.562,1.561-3.609,2.343-5.657,2.343c-2.048,0-4.095-0.781-5.657-2.343
		c-3.124-3.125-3.124-8.19,0-11.315l18.03-18.031l-7.777-7.777l-18.03,18.031c-1.562,1.562-3.609,2.343-5.657,2.343
		c-2.048,0-4.095-0.781-5.657-2.343c-3.124-3.125-3.124-8.189,0-11.314l18.03-18.031l-7.773-7.773
		c-8.841,8.837-23.823,23.816-23.927,23.921C165.309,92.393,164.674,113.328,177.151,125.805z"/>
</g>
<g>
</g>
<g>
</g>
<g>
</g>
<g>
</g>
<g>
</g>
<g>
</g>
<g>
</g>
<g>
</g>
<g>
</g>
<g>
</g>
<g>
</g>
<g>
</g>
<g>
</g>
<g>
</g>
<g>
</g>
</svg>
