<?xml version="1.0" encoding="iso-8859-1"?>
<!-- Generator: Adobe Illustrator 19.0.0, SVG Export Plug-In . SVG Version: 6.00 Build 0)  -->
<svg version="1.1" id="Layer_1" xmlns="http://www.w3.org/2000/svg" xmlns:xlink="http://www.w3.org/1999/xlink" x="0px" y="0px"
	 viewBox="0 0 503.467 503.467" style="enable-background:new 0 0 503.467 503.467;" xml:space="preserve">
<g transform="translate(1 1)">
	<g>
		<path style="fill:#FFE079;" d="M327.533,327.533v153.6c0,9.387-7.68,17.067-17.067,17.067H20.333
			c-9.387,0-17.067-7.68-17.067-17.067v-153.6c0-9.387,7.68-17.067,17.067-17.067H139.8h170.667
			C319.853,310.467,327.533,318.147,327.533,327.533"/>
		<path style="fill:#FFE079;" d="M498.2,361.667v119.467c0,9.387-7.68,17.067-17.067,17.067h-51.2
			c-9.387,0-17.067-7.68-17.067-17.067V361.667c0-9.387,7.68-17.067,17.067-17.067h51.2C490.52,344.6,498.2,352.28,498.2,361.667"/>
	</g>
	<path style="fill:#ECF4F7;" d="M498.2,20.333v341.333c0-9.387-7.68-17.067-17.067-17.067h-51.2c-9.387,0-17.067,7.68-17.067,17.067
		v119.467c0,9.387,7.68,17.067,17.067,17.067H310.467c9.387,0,17.067-7.68,17.067-17.067v-153.6c0-9.387-7.68-17.067-17.067-17.067
		H139.8V20.333c0-9.387,7.68-17.067,17.067-17.067h324.267C490.52,3.267,498.2,10.947,498.2,20.333"/>
	<path style="fill:#80D6FA;" d="M233.667,71.533c14.507,0,25.6,11.093,25.6,25.6s-11.093,25.6-25.6,25.6
		c-14.507,0-25.6-11.093-25.6-25.6S219.16,71.533,233.667,71.533z M455.533,412.867c5.12,0,8.533,4.267,8.533,8.533
		s-3.413,8.533-8.533,8.533S447,425.667,447,421.4S450.413,412.867,455.533,412.867z M80.067,361.667
		c14.507,0,25.6,11.093,25.6,25.6s-11.093,25.6-25.6,25.6s-25.6-11.093-25.6-25.6S65.56,361.667,80.067,361.667z M37.4,242.2h34.133
		V37.4H37.4V242.2z"/>
	<path style="fill:#ECF4F7;" d="M54.467,3.267L37.4,37.4h34.133L54.467,3.267z M71.533,242.2v17.067
		c0,4.267-1.707,8.533-5.12,11.947c-3.413,3.413-7.68,5.12-11.947,5.12c-9.387,0-17.067-7.68-17.067-17.067V242.2H71.533z"/>
</g>
<path style="fill:#51565F;" d="M482.133,503.467h-51.2c-11.947,0-21.333-9.387-21.333-21.333V362.667
	c0-11.947,9.387-21.333,21.333-21.333h51.2c11.947,0,21.333,9.387,21.333,21.333v119.467
	C503.467,494.08,494.08,503.467,482.133,503.467z M430.933,349.867c-6.827,0-12.8,5.973-12.8,12.8v119.467
	c0,6.827,5.973,12.8,12.8,12.8h51.2c6.827,0,12.8-5.973,12.8-12.8V362.667c0-6.827-5.973-12.8-12.8-12.8H430.933z M379.733,503.467
	h-17.067c-2.56,0-4.267-1.707-4.267-4.267c0-2.56,1.707-4.267,4.267-4.267h17.067c2.56,0,4.267,1.707,4.267,4.267
	C384,501.76,382.293,503.467,379.733,503.467z M311.467,503.467H21.333C9.387,503.467,0,494.08,0,482.133v-153.6
	C0,316.587,9.387,307.2,21.333,307.2h290.133c11.947,0,21.333,9.387,21.333,21.333v153.6
	C332.8,494.08,323.413,503.467,311.467,503.467z M21.333,315.733c-6.827,0-12.8,5.973-12.8,12.8v153.6c0,6.827,5.973,12.8,12.8,12.8
	h290.133c6.827,0,12.8-5.973,12.8-12.8v-153.6c0-6.827-5.973-12.8-12.8-12.8H21.333z M277.333,452.267H157.867
	c-2.56,0-4.267-1.707-4.267-4.267c0-2.56,1.707-4.267,4.267-4.267h119.467c2.56,0,4.267,1.707,4.267,4.267
	C281.6,450.56,279.893,452.267,277.333,452.267z M456.533,435.2c-6.827,0-12.8-5.973-12.8-12.8s5.973-12.8,12.8-12.8
	s12.8,5.973,12.8,12.8S463.36,435.2,456.533,435.2z M456.533,418.133c-2.56,0-4.267,1.707-4.267,4.267s1.707,4.267,4.267,4.267
	s4.267-1.707,4.267-4.267S459.093,418.133,456.533,418.133z M81.067,418.133c-16.213,0-29.867-13.653-29.867-29.867
	S64.853,358.4,81.067,358.4s29.867,13.653,29.867,29.867S97.28,418.133,81.067,418.133z M81.067,366.933
	c-11.947,0-21.333,9.387-21.333,21.333c0,11.947,9.387,21.333,21.333,21.333s21.333-9.387,21.333-21.333
	C102.4,376.32,93.013,366.933,81.067,366.933z M226.133,401.067h-68.267c-2.56,0-4.267-1.707-4.267-4.267s1.707-4.267,4.267-4.267
	h68.267c2.56,0,4.267,1.707,4.267,4.267S228.693,401.067,226.133,401.067z M379.733,384h-17.067c-2.56,0-4.267-1.707-4.267-4.267
	c0-2.56,1.707-4.267,4.267-4.267h17.067c2.56,0,4.267,1.707,4.267,4.267C384,382.293,382.293,384,379.733,384z M209.067,366.933
	h-51.2c-2.56,0-4.267-1.707-4.267-4.267s1.707-4.267,4.267-4.267h51.2c2.56,0,4.267,1.707,4.267,4.267
	S211.627,366.933,209.067,366.933z M379.733,349.867h-17.067c-2.56,0-4.267-1.707-4.267-4.267c0-2.56,1.707-4.267,4.267-4.267
	h17.067c2.56,0,4.267,1.707,4.267,4.267C384,348.16,382.293,349.867,379.733,349.867z M499.2,315.733
	c-2.56,0-4.267-1.707-4.267-4.267V21.333c0-6.827-5.973-12.8-12.8-12.8H157.867c-6.827,0-12.8,5.973-12.8,12.8v256
	c0,2.56-1.707,4.267-4.267,4.267c-2.56,0-4.267-1.707-4.267-4.267v-256C136.533,9.387,145.92,0,157.867,0h324.267
	c11.947,0,21.333,9.387,21.333,21.333v290.133C503.467,314.027,501.76,315.733,499.2,315.733z M430.933,315.733h-68.267
	c-2.56,0-4.267-1.707-4.267-4.267c0-2.56,1.707-4.267,4.267-4.267h68.267c2.56,0,4.267,1.707,4.267,4.267
	C435.2,314.027,433.493,315.733,430.933,315.733z M413.867,281.6h-102.4c-2.56,0-4.267-1.707-4.267-4.267s1.707-4.267,4.267-4.267
	h102.4c2.56,0,4.267,1.707,4.267,4.267S416.427,281.6,413.867,281.6z M277.333,281.6h-68.267c-2.56,0-4.267-1.707-4.267-4.267
	s1.707-4.267,4.267-4.267h68.267c2.56,0,4.267,1.707,4.267,4.267S279.893,281.6,277.333,281.6z M55.467,281.6
	c-11.947,0-21.333-9.387-21.333-21.333V38.4l0,0l0,0l0,0l0,0c0-0.853,0-1.707,0.853-1.707L52.053,2.56c1.707-2.56,5.973-2.56,7.68,0
	L76.8,36.693c0,0.853,0.853,0.853,0.853,1.707l0,0l0,0l0,0l0,0v221.867C76.8,272.213,67.413,281.6,55.467,281.6z M42.667,247.467
	v12.8c0,6.827,5.973,12.8,12.8,12.8s12.8-5.973,12.8-12.8v-12.8H42.667z M42.667,238.933h25.6V42.667h-25.6V238.933z M45.227,34.133
	h20.48l-10.24-20.48L45.227,34.133z M430.933,247.467h-68.267c-2.56,0-4.267-1.707-4.267-4.267s1.707-4.267,4.267-4.267h68.267
	c2.56,0,4.267,1.707,4.267,4.267S433.493,247.467,430.933,247.467z M328.533,247.467H209.067c-2.56,0-4.267-1.707-4.267-4.267
	s1.707-4.267,4.267-4.267h119.467c2.56,0,4.267,1.707,4.267,4.267S331.093,247.467,328.533,247.467z M277.333,196.267h-68.267
	c-2.56,0-4.267-1.707-4.267-4.267c0-2.56,1.707-4.267,4.267-4.267h68.267c2.56,0,4.267,1.707,4.267,4.267
	C281.6,194.56,279.893,196.267,277.333,196.267z M234.667,128c-16.213,0-29.867-13.653-29.867-29.867s13.653-29.867,29.867-29.867
	s29.867,13.653,29.867,29.867S250.88,128,234.667,128z M234.667,76.8c-11.947,0-21.333,9.387-21.333,21.333
	s9.387,21.333,21.333,21.333c11.947,0,21.333-9.387,21.333-21.333S246.613,76.8,234.667,76.8z M430.933,110.933H345.6
	c-2.56,0-4.267-1.707-4.267-4.267s1.707-4.267,4.267-4.267h85.333c2.56,0,4.267,1.707,4.267,4.267S433.493,110.933,430.933,110.933z
	 M413.867,76.8H345.6c-2.56,0-4.267-1.707-4.267-4.267c0-2.56,1.707-4.267,4.267-4.267h68.267c2.56,0,4.267,1.707,4.267,4.267
	C418.133,75.093,416.427,76.8,413.867,76.8z"/>
<g>
</g>
<g>
</g>
<g>
</g>
<g>
</g>
<g>
</g>
<g>
</g>
<g>
</g>
<g>
</g>
<g>
</g>
<g>
</g>
<g>
</g>
<g>
</g>
<g>
</g>
<g>
</g>
<g>
</g>
</svg>
